<?xml version="1.0" encoding="utf-8"?>
<!-- Generator: Adobe Illustrator 24.3.0, SVG Export Plug-In . SVG Version: 6.00 Build 0)  -->
<svg version="1.1" id="Layer_1" xmlns="http://www.w3.org/2000/svg" xmlns:xlink="http://www.w3.org/1999/xlink" x="0px" y="0px"
	 width="76px" height="76px" viewBox="0 0 76 76" style="enable-background:new 0 0 76 76;" xml:space="preserve">
<style type="text/css">
	.st0{fill:#EBDB52;}
	.st1{fill:#FFDC00;}
	.st2{fill:#FFD44A;}
	.st3{fill:#F89A1C;}
	.st4{fill:#FFF19B;}
	.st5{fill:#2A0604;}
	.st6{fill:#D30800;}
</style>
<path class="st0" d="M5,0h66c2.76,0,5,2.24,5,5v66c0,2.76-2.24,5-5,5H5c-2.76,0-5-2.24-5-5V5C0,2.24,2.24,0,5,0z"/>
<path class="st1" d="M43.7,10.17H29.64v8.65c0,3.88,3.14,7.02,7.02,7.02h0.03c3.88,0,7.02-3.14,7.02-7.02L43.7,10.17z"/>
<path class="st2" d="M40.89,33.61h-8.44v-2.66c0-1.12,0.91-2.03,2.03-2.03h4.38c1.12,0,2.03,0.91,2.03,2.03L40.89,33.61z"/>
<path class="st3" d="M51.37,45.4c0-3.97-1.54-7.71-4.33-10.53c-0.91-0.92-2.4-0.98-3.34-0.09c-0.96,0.91-0.97,2.43-0.04,3.37
	c1.94,1.94,3.01,4.52,3.01,7.26c0,0.03,0,0.05,0,0.08c-0.03,3.98-3.3,7.18-7.28,7.18h-5.43c-3.98,0-7.25-3.2-7.28-7.18
	c0-0.03,0-0.05,0-0.08c0-2.74,1.07-5.32,3.01-7.26c0.93-0.93,0.92-2.45-0.04-3.37c-0.93-0.89-2.43-0.83-3.34,0.09
	c-2.8,2.82-4.33,6.56-4.33,10.53c0,4,1.56,7.76,4.38,10.59l3.97,1.68v10.16h6.34h0.06h6.34V57.67l3.91-1.68
	C49.81,53.16,51.37,49.4,51.37,45.4z"/>
<path class="st4" d="M36.67,41.36c-2.85,0-5.16,2.31-5.16,5.16v0.94c0,2.85,2.31,5.16,5.16,5.16c2.85,0,5.16-2.31,5.16-5.16v-0.94
	C41.83,43.67,39.52,41.36,36.67,41.36z"/>
<path d="M29.5,56.62c-0.22,0.22-0.34,0.52-0.34,0.83c0,0.31,0.13,0.61,0.34,0.83c0.22,0.22,0.52,0.34,0.83,0.34
	c0.31,0,0.61-0.13,0.83-0.34c0.22-0.22,0.34-0.52,0.34-0.83c0-0.31-0.13-0.61-0.34-0.83c-0.22-0.22-0.52-0.34-0.83-0.34
	C30.02,56.27,29.72,56.4,29.5,56.62z"/>
<path class="st5" d="M27.22,56.74c0.46-0.46,0.46-1.2,0-1.66c-2.6-2.6-4.03-6.05-4.03-9.72c0-3.65,1.41-7.08,3.98-9.67
	c0.47-0.47,1.23-0.51,1.68-0.07c0.23,0.22,0.36,0.52,0.36,0.83c0,0.32-0.12,0.62-0.34,0.84c-2.15,2.15-3.34,5.02-3.34,8.06l0,0.09
	c0.04,4.59,3.82,8.32,8.43,8.32h5.41c4.61,0,8.39-3.73,8.43-8.32l0-0.09c0-3.05-1.19-5.91-3.34-8.06c-0.22-0.23-0.35-0.52-0.34-0.84
	c0-0.32,0.13-0.61,0.36-0.83c0.46-0.44,1.21-0.41,1.68,0.07c2.57,2.59,3.98,6.03,3.98,9.67c0,3.67-1.43,7.13-4.03,9.72
	c-0.46,0.46-0.46,1.2,0,1.66c0.23,0.23,0.53,0.34,0.83,0.34s0.6-0.11,0.83-0.34c3.04-3.04,4.71-7.08,4.71-11.38
	c0-4.27-1.65-8.29-4.66-11.32c-1.36-1.38-3.59-1.43-4.97-0.11c-0.69,0.66-1.08,1.55-1.09,2.5c-0.01,0.95,0.35,1.85,1.03,2.53
	c1.71,1.71,2.65,3.99,2.65,6.41l0,0.07c-0.02,2.36-1.42,4.41-3.44,5.39c0.62-0.98,0.98-2.13,0.98-3.37v-0.94
	c0-3.49-2.84-6.33-6.33-6.33c-3.49,0-6.33,2.84-6.33,6.33v0.94c0,1.24,0.36,2.39,0.98,3.37c-2.02-0.97-3.42-3.02-3.44-5.39l0-0.07
	c0-2.42,0.94-4.7,2.65-6.41c0.67-0.68,1.04-1.57,1.03-2.53c-0.01-0.95-0.4-1.84-1.09-2.5c-1.38-1.31-3.6-1.26-4.97,0.11
	c-3,3.03-4.66,7.05-4.66,11.32c0,4.3,1.67,8.34,4.71,11.38C26.02,57.2,26.76,57.2,27.22,56.74z M32.69,46.52
	c0-2.2,1.79-3.98,3.98-3.98c2.2,0,3.98,1.79,3.98,3.98v0.94c0,2.11-1.65,3.84-3.73,3.98h-0.51c-2.08-0.13-3.73-1.86-3.73-3.98V46.52
	z"/>
<path class="st5" d="M28.68,20.65c0.75,3.27,3.47,5.81,6.84,6.28v0.82h-1.03c-1.77,0-3.2,1.44-3.2,3.2v2.66
	c0,0.65,0.52,1.17,1.17,1.17h8.44c0.65,0,1.17-0.52,1.17-1.17v-2.66c0-1.77-1.44-3.2-3.2-3.2h-1v-0.83
	c3.36-0.48,6.06-3.01,6.81-6.28c3.03-0.47,5.36-3.09,5.36-6.25v-4.22c0-0.65-0.52-1.17-1.17-1.17H43.7H29.64h-5.16
	c-0.65,0-1.17,0.52-1.17,1.17v4.22C23.31,17.55,25.64,20.18,28.68,20.65z M39.72,30.95v1.48h-6.09v-1.48c0-0.47,0.39-0.86,0.86-0.86
	h4.38C39.33,30.09,39.72,30.48,39.72,30.95z M47.69,14.39c0,1.79-1.19,3.31-2.81,3.81v-6.86h2.81V14.39z M42.53,18.82
	c0,3.22-2.62,5.85-5.85,5.85h-0.03c-3.22,0-5.85-2.62-5.85-5.85v-7.47h11.72V18.82z M25.66,11.34h2.81v6.86
	c-1.63-0.5-2.81-2.02-2.81-3.81V11.34z"/>
<path class="st5" d="M60,67c-0.22-0.22-0.52-0.34-0.83-0.34c-0.31,0-0.61,0.13-0.83,0.34C58.13,67.22,58,67.52,58,67.83
	c0,0.31,0.13,0.61,0.34,0.83c0.22,0.22,0.52,0.34,0.83,0.34c0.31,0,0.61-0.13,0.83-0.34c0.22-0.22,0.34-0.52,0.34-0.83
	C60.34,67.52,60.22,67.22,60,67z"/>
<path class="st5" d="M53.55,66.66h-9.3v-9.21c0-0.65-0.52-1.17-1.17-1.17c-0.65,0-1.17,0.52-1.17,1.17v9.21H31.5v-4.02
	c0-0.65-0.52-1.17-1.17-1.17c-0.65,0-1.17,0.52-1.17,1.17v4.02H14.17c-0.65,0-1.17,0.52-1.17,1.17c0,0.65,0.52,1.17,1.17,1.17h39.38
	c0.65,0,1.17-0.52,1.17-1.17C54.72,67.18,54.19,66.66,53.55,66.66z"/>
<path class="st6" d="M36.79,21.89c-1.1,0-2.13-0.43-2.9-1.2c-0.77-0.78-1.2-1.8-1.2-2.9c0-1.1,0.43-2.13,1.2-2.9
	c0.78-0.77,1.8-1.2,2.9-1.2c1.1,0,2.13,0.43,2.9,1.2c0.77,0.78,1.2,1.8,1.2,2.9c0,1.1-0.43,2.13-1.2,2.9
	C38.91,21.46,37.88,21.89,36.79,21.89z M36.79,14.2c-1.98,0-3.59,1.61-3.59,3.59c0,1.98,1.61,3.59,3.59,3.59
	c1.98,0,3.59-1.61,3.59-3.59C40.38,15.81,38.77,14.2,36.79,14.2z"/>
<path class="st6" d="M36.79,17.53c-0.35,0-0.64-0.29-0.64-0.64c0-0.35,0.29-0.64,0.64-0.64c0.35,0,0.64,0.29,0.64,0.64
	c0,0.14,0.12,0.26,0.26,0.26c0.14,0,0.26-0.12,0.26-0.26c0-0.55-0.38-1.01-0.9-1.12v-0.29c0-0.14-0.12-0.26-0.26-0.26
	s-0.26,0.12-0.26,0.26v0.29c-0.51,0.12-0.9,0.58-0.9,1.12c0,0.64,0.52,1.15,1.15,1.15c0.35,0,0.64,0.29,0.64,0.64
	c0,0.35-0.29,0.64-0.64,0.64c-0.35,0-0.64-0.29-0.64-0.64c0-0.14-0.12-0.26-0.26-0.26c-0.14,0-0.26,0.12-0.26,0.26
	c0,0.55,0.38,1.01,0.9,1.12v0.29c0,0.14,0.12,0.26,0.26,0.26s0.26-0.12,0.26-0.26v-0.29c0.51-0.12,0.9-0.58,0.9-1.12
	C37.94,18.05,37.43,17.53,36.79,17.53z"/>
</svg>
